<?xml version="1.0" encoding="utf-8"?>
<!-- Generator: Adobe Illustrator 16.0.0, SVG Export Plug-In . SVG Version: 6.00 Build 0)  -->
<!DOCTYPE svg PUBLIC "-//W3C//DTD SVG 1.1//EN" "http://www.w3.org/Graphics/SVG/1.1/DTD/svg11.dtd">
<svg version="1.1" xmlns="http://www.w3.org/2000/svg" xmlns:xlink="http://www.w3.org/1999/xlink" x="0px" y="0px" width="707px"
	 height="305px" viewBox="0 0 707 305" enable-background="new 0 0 707 305" xml:space="preserve">
<g id="Layer_1">
	<g id="Layer_1_1_">
	</g>
	<g id="Layer_1_2_">
	</g>
	<g>
		<g id="Layer_1_6_">
		</g>
		<g id="Layer_1_5_">
		</g>
	</g>
	<g>
		<g>
			<path fill="#939598" d="M323.896,216.039c0,8.34-2.103,14.674-6.303,18.998c-4.202,4.32-10.597,6.48-19.179,6.48
				c-3.931,0-7.799-0.438-11.607-1.314s-7.315-2.585-10.519-5.124l7.527-11.241c2.114,1.75,4.336,3.142,6.665,4.17
				c2.326,1.027,4.881,1.541,7.66,1.541c4.172,0,7.24-1.012,9.206-3.037c1.963-2.025,2.946-4.61,2.946-7.752v-4.263h-0.182
				c-1.573,2.118-3.522,3.613-5.849,4.487c-2.329,0.877-4.52,1.317-6.573,1.317c-3.266,0-6.229-0.561-8.887-1.681
				c-2.66-1.117-4.942-2.687-6.848-4.715c-1.903-2.025-3.37-4.425-4.397-7.207c-1.028-2.783-1.54-5.836-1.54-9.159
				c0-2.901,0.467-5.742,1.404-8.524c0.938-2.779,2.267-5.229,3.99-7.347c1.724-2.114,3.822-3.821,6.301-5.12
				s5.291-1.951,8.435-1.951c1.935,0,3.702,0.212,5.304,0.633c1.602,0.426,3.039,0.971,4.309,1.635
				c1.27,0.665,2.357,1.407,3.264,2.223s1.633,1.615,2.176,2.403h0.182v-5.804h12.515V216.039z M289.619,197.447
				c0,1.453,0.272,2.829,0.815,4.127c0.545,1.303,1.316,2.45,2.313,3.447c0.998,0.997,2.145,1.797,3.445,2.404
				c1.301,0.603,2.736,0.904,4.309,0.904c1.51,0,2.932-0.302,4.261-0.904c1.33-0.607,2.495-1.407,3.491-2.404
				c0.998-0.997,1.769-2.145,2.313-3.447c0.543-1.298,0.815-2.674,0.815-4.127c0-1.449-0.272-2.824-0.815-4.123
				c-0.545-1.299-1.315-2.45-2.313-3.447c-0.996-0.997-2.161-1.797-3.491-2.403c-1.329-0.603-2.751-0.904-4.261-0.904
				c-1.572,0-3.008,0.302-4.309,0.904c-1.301,0.606-2.447,1.406-3.445,2.403c-0.996,0.997-1.768,2.148-2.313,3.447
				C289.892,194.623,289.619,195.998,289.619,197.447z"/>
			<path fill="#939598" d="M362.433,214.223h-0.182c-1.511,2.357-3.522,4.055-6.03,5.078c-2.509,1.028-5.153,1.542-7.934,1.542
				c-2.056,0-4.036-0.286-5.939-0.862c-1.905-0.571-3.583-1.434-5.034-2.581s-2.599-2.569-3.445-4.263
				c-0.848-1.692-1.269-3.655-1.269-5.893c0-2.539,0.468-4.688,1.404-6.438c0.938-1.755,2.206-3.204,3.809-4.355
				c1.602-1.147,3.432-2.04,5.487-2.674c2.054-0.634,4.186-1.102,6.392-1.407c2.207-0.301,4.413-0.482,6.62-0.541
				c2.207-0.062,4.247-0.092,6.121-0.092c0-2.416-0.861-4.336-2.585-5.759c-1.722-1.418-3.763-2.129-6.12-2.129
				c-2.237,0-4.277,0.468-6.121,1.403c-1.845,0.938-3.491,2.222-4.942,3.856l-7.254-7.439c2.54-2.357,5.499-4.123,8.887-5.302
				c3.386-1.179,6.893-1.77,10.519-1.77c3.99,0,7.268,0.498,9.84,1.495c2.567,1.001,4.623,2.466,6.165,4.397
				c1.542,1.937,2.614,4.309,3.219,7.118c0.604,2.813,0.907,6.063,0.907,9.75v22.398h-12.514V214.223z M359.076,200.442
				c-1.027,0-2.311,0.042-3.853,0.136c-1.542,0.088-3.023,0.348-4.444,0.769c-1.42,0.425-2.63,1.059-3.626,1.905
				c-0.998,0.847-1.496,2.025-1.496,3.536c0,1.634,0.693,2.844,2.085,3.628c1.392,0.785,2.841,1.18,4.354,1.18
				c1.329,0,2.614-0.182,3.853-0.545s2.344-0.874,3.31-1.543c0.966-0.664,1.737-1.511,2.313-2.538
				c0.573-1.028,0.861-2.233,0.861-3.625v-2.902H359.076z"/>
			<path fill="#939598" d="M413.483,186.569h-11.97v14.688c0,1.209,0.06,2.311,0.182,3.308s0.392,1.859,0.817,2.586
				c0.421,0.727,1.072,1.286,1.949,1.677c0.875,0.395,2.039,0.592,3.49,0.592c0.727,0,1.679-0.078,2.857-0.229
				s2.069-0.498,2.674-1.043v11.334c-1.511,0.545-3.084,0.908-4.715,1.09c-1.632,0.182-3.234,0.271-4.807,0.271
				c-2.298,0-4.413-0.239-6.348-0.723c-1.934-0.483-3.627-1.256-5.078-2.315c-1.451-1.055-2.583-2.43-3.4-4.123
				c-0.815-1.692-1.223-3.748-1.223-6.167v-20.945h-8.705v-10.882h8.705v-13.059h13.601v13.059h11.97V186.569z"/>
			<path fill="#939598" d="M462.087,212.141c-2.176,2.777-4.928,4.927-8.253,6.438c-3.325,1.512-6.771,2.265-10.337,2.265
				c-3.386,0-6.574-0.541-9.566-1.631c-2.991-1.09-5.592-2.644-7.799-4.668c-2.207-2.025-3.943-4.46-5.213-7.3
				c-1.27-2.845-1.905-6.018-1.905-9.522s0.636-6.682,1.905-9.521c1.27-2.841,3.006-5.275,5.213-7.3
				c2.207-2.025,4.808-3.582,7.799-4.668c2.992-1.09,6.181-1.635,9.566-1.635c3.144,0,5.999,0.545,8.569,1.635
				c2.569,1.086,4.745,2.643,6.528,4.668c1.783,2.024,3.159,4.459,4.127,7.3c0.967,2.84,1.45,6.017,1.45,9.521v4.263h-31.556
				c0.543,2.597,1.722,4.668,3.536,6.21s4.05,2.312,6.71,2.312c2.236,0,4.126-0.499,5.668-1.496s2.887-2.279,4.034-3.853
				L462.087,212.141z M450.57,192.732c0.061-2.295-0.695-4.262-2.267-5.893c-1.572-1.631-3.598-2.45-6.076-2.45
				c-1.512,0-2.843,0.243-3.99,0.727c-1.148,0.487-2.13,1.105-2.947,1.858c-0.814,0.758-1.451,1.635-1.902,2.632
				c-0.454,0.997-0.712,2.04-0.771,3.126H450.57z"/>
			<path fill="#939598" d="M467.165,175.688h14.509l8.977,27.657h0.182l7.526-27.657h14.872l8.159,27.657h0.182l8.253-27.657h13.782
				l-15.688,44.069H514.5l-9.159-29.288h-0.182l-8.161,29.288h-13.692L467.165,175.688z"/>
			<path fill="#939598" d="M575.615,214.223h-0.182c-1.511,2.357-3.522,4.055-6.03,5.078c-2.508,1.028-5.153,1.542-7.934,1.542
				c-2.056,0-4.036-0.286-5.939-0.862c-1.905-0.571-3.582-1.434-5.033-2.581s-2.6-2.569-3.445-4.263
				c-0.848-1.692-1.27-3.655-1.27-5.893c0-2.539,0.468-4.688,1.404-6.438c0.938-1.755,2.207-3.204,3.809-4.355
				c1.602-1.147,3.432-2.04,5.487-2.674c2.054-0.634,4.186-1.102,6.392-1.407c2.207-0.301,4.414-0.482,6.62-0.541
				c2.207-0.062,4.247-0.092,6.121-0.092c0-2.416-0.861-4.336-2.585-5.759c-1.722-1.418-3.762-2.129-6.119-2.129
				c-2.237,0-4.278,0.468-6.121,1.403c-1.846,0.938-3.492,2.222-4.943,3.856l-7.253-7.439c2.539-2.357,5.499-4.123,8.886-5.302
				c3.386-1.179,6.893-1.77,10.52-1.77c3.99,0,7.267,0.498,9.838,1.495c2.568,1.001,4.625,2.466,6.166,4.397
				c1.542,1.937,2.614,4.309,3.219,7.118c0.604,2.813,0.906,6.063,0.906,9.75v22.398h-12.513V214.223z M572.259,200.442
				c-1.027,0-2.311,0.042-3.853,0.136c-1.542,0.088-3.023,0.348-4.443,0.769c-1.421,0.425-2.63,1.059-3.628,1.905
				c-0.996,0.847-1.495,2.025-1.495,3.536c0,1.634,0.694,2.844,2.085,3.628c1.392,0.785,2.841,1.18,4.354,1.18
				c1.329,0,2.614-0.182,3.853-0.545s2.344-0.874,3.31-1.543c0.967-0.664,1.737-1.511,2.313-2.538
				c0.573-1.028,0.861-2.233,0.861-3.625v-2.902H572.259z"/>
			<path fill="#939598" d="M622.042,226.918c-0.907,2.361-1.785,4.443-2.629,6.26c-0.849,1.813-1.921,3.339-3.22,4.58
				c-1.3,1.236-2.948,2.175-4.942,2.809s-4.624,0.951-7.889,0.951c-3.508,0-6.893-0.541-10.156-1.631l1.814-11.152
				c2.054,0.904,4.17,1.359,6.348,1.359c1.509,0,2.749-0.17,3.717-0.498c0.967-0.332,1.769-0.815,2.402-1.453
				c0.636-0.634,1.163-1.402,1.588-2.311c0.422-0.908,0.876-1.967,1.36-3.173l0.997-2.539l-19.314-44.433h14.689l11.336,29.106
				h0.182l9.701-29.106h13.965L622.042,226.918z"/>
		</g>
		<g>
			<path fill="#0C2A4A" d="M406.097,83.609c0.014-0.3,0.031-0.688-0.146-1.035l-0.211-0.633l-0.582-0.1
				c-0.563-0.101-1.217-0.086-1.851-0.08l-17.226,0.006l-12.747,12.074l-17.007-13.772l-15.642,16.463
				c-0.33,0.382-0.312,0.857-0.296,1.278l-0.004,45.046c-0.016,0.331-0.036,0.831,0.304,1.222l0.659,0.758l15.285-13.738
				l0.669-0.616v-28.582l16.445,14.372l16.236-14.936v44.576L405.78,131.4c0.35-0.391,0.33-0.898,0.313-1.353L406.097,83.609z"/>
			<path fill="#0C2A4A" d="M331.438,114.587l-18.107-13.606c-1.086-0.876-0.964-2.184-0.952-2.313
				c0.026-0.695,0.237-1.216,0.646-1.59c0.852-0.777,2.299-0.706,2.357-0.715h21.229l14.988-15.968l-45.548-0.012
				c-0.18-0.004-0.355-0.004-0.531-0.004c-15.874,0-16.71,12.666-16.71,12.722c-1.167,9.147,4.277,13.216,4.479,13.361
				l22.764,17.976c0.898,0.717,0.849,1.582,0.841,1.709c0,1.49-1.173,1.713-1.453,1.741h-23.724l-16.615,16.341h2.417h40.896
				l4.885-0.135c15.073-1.961,14.734-16.273,14.73-16.382C338.028,119.496,331.697,114.775,331.438,114.587z"/>
			<path fill="#0C2A4A" d="M426.644,112.688c0.406-14.949,14.121-15.424,14.686-15.437h13.646l16.171-16.59l-30.399,0.069
				c-31.527,2.079-30.998,31.707-30.988,32.022c1.313,27.753,28.092,31.219,28.479,31.257l32.038-0.007v-15.595h-29.729
				C425.846,125.309,426.602,113.252,426.644,112.688z"/>
		</g>
		<g>
			<path fill="#0C2A4A" d="M172.624,207.795c0.871,0,1.69-0.34,2.307-0.957c0.617-0.618,0.955-1.438,0.955-2.309
				c0-0.873-0.34-1.693-0.959-2.31c-0.635-0.636-1.471-0.952-2.305-0.952c-0.837,0-1.674,0.318-2.311,0.956v0.002
				c-0.617,0.616-0.955,1.436-0.955,2.308c0,0.871,0.34,1.69,0.957,2.307s1.438,0.955,2.309,0.955
				C172.622,207.795,172.622,207.795,172.624,207.795z"/>
			<path fill="#0C2A4A" d="M188.781,165.377c1.271-1.271,1.271-3.345-0.004-4.616c-0.616-0.616-1.437-0.954-2.308-0.954
				c0,0,0,0-0.002,0c-0.871,0-1.69,0.34-2.307,0.956v0.002c-1.273,1.271-1.271,3.343,0.004,4.616
				C185.438,166.656,187.512,166.648,188.781,165.377z"/>
			<path fill="#0C2A4A" d="M203.972,63.482H102.563c-20.741,0-37.555,16.814-37.555,37.556v81.276l33.213-33.213l-1.076-6.842
				c-2.126-0.434-4.082-1.476-5.651-3.047c-4.355-4.359-4.354-11.451,0.008-15.81c4.366-4.354,11.456-4.35,15.812,0.012
				c2.109,2.112,3.271,4.919,3.27,7.906c-0.002,2.985-1.168,5.791-3.279,7.901c-0.705,0.704-1.51,1.26-2.351,1.744l1.713,10.883
				l-41.657,41.656v8.94c0,1.725,0.156,3.408,0.382,5.071l54.83-54.83l-2.199-17.996l12.669-12.652
				c-0.643-1.425-1.005-2.971-1.004-4.581c0-2.987,1.165-5.795,3.278-7.905c2.11-2.105,4.916-3.267,7.899-3.267
				c0.002,0,0.004,0,0.006,0c2.986,0,5.795,1.165,7.904,3.278c4.355,4.361,4.352,11.454-0.012,15.81
				c-2.109,2.108-4.915,3.27-7.898,3.27c-0.002,0-0.004,0-0.008,0c-1.606-0.001-3.15-0.364-4.574-1.006l-9.938,9.925l2.199,17.992
				l-60.832,60.832c1.325,3.309,3.108,6.375,5.269,9.141l62.365-62.365c-0.642-1.424-1.004-2.97-1.003-4.579
				c0-2.987,1.165-5.795,3.279-7.904c2.109-2.106,4.915-3.268,7.898-3.268c0.002,0,0.004,0,0.006,0c2.987,0,5.795,1.165,7.904,3.278
				c4.355,4.361,4.352,11.455-0.012,15.81c-2.109,2.108-4.915,3.27-7.898,3.27c-0.002,0-0.004,0-0.008,0
				c-1.607-0.001-3.152-0.364-4.575-1.007l-62.472,62.473c2.604,2.183,5.518,3.998,8.652,5.417l61.263-61.262l17.992,2.198
				l9.925-9.937c-0.642-1.424-1.005-2.967-1.006-4.574c-0.002-2.987,1.159-5.794,3.27-7.906c2.109-2.114,4.918-3.279,7.902-3.279
				c0.002,0,0.004,0,0.006,0c2.984,0,5.789,1.159,7.901,3.27c4.36,4.357,4.364,11.448,0.01,15.81
				c-2.18,2.182-5.046,3.273-7.909,3.273c-1.564,0-3.116-0.356-4.568-1.007l-12.658,12.675l-17.997-2.199l-55.621,55.621
				c2.251,0.422,4.563,0.666,6.937,0.666h6.792l42.731-42.73l10.88,1.711c0.485-0.84,1.04-1.644,1.745-2.349
				c4.354-4.362,11.445-4.364,15.809-0.013c4.363,4.36,4.365,11.451,0.01,15.813c-2.109,2.112-4.917,3.277-7.902,3.277
				c-0.002,0-0.004,0-0.006,0c-2.983,0-5.789-1.159-7.901-3.27c-1.57-1.568-2.612-3.524-3.046-5.65l-6.841-1.076L120.547,240h83.425
				c20.74,0,37.555-16.813,37.555-37.554V101.038C241.526,80.297,224.712,63.482,203.972,63.482z"/>
			<path fill="#0C2A4A" d="M102.668,131.315c0-0.871-0.338-1.69-0.954-2.307c-0.637-0.638-1.475-0.958-2.312-0.958
				c-0.835,0-1.671,0.318-2.307,0.954c-0.616,0.614-0.956,1.434-0.956,2.307c0,0.872,0.338,1.69,0.954,2.308
				c0.616,0.618,1.436,0.958,2.307,0.958c0.002,0,0.002,0,0.002,0c0.872,0.002,1.691-0.338,2.31-0.954
				C102.328,133.006,102.668,132.188,102.668,131.315z"/>
			<path fill="#0C2A4A" d="M145.521,161.854c0.871,0,1.691-0.34,2.307-0.955c1.273-1.272,1.275-3.345,0.005-4.618
				c-0.616-0.616-1.437-0.956-2.31-0.956c0,0,0,0-0.002,0c-0.871,0-1.688,0.339-2.305,0.954c-0.618,0.617-0.959,1.437-0.959,2.308
				c-0.002,0.871,0.339,1.69,0.955,2.308s1.436,0.958,2.307,0.96H145.521z"/>
			<path fill="#0C2A4A" d="M140.864,120.729c0.871,0,1.69-0.34,2.307-0.954c1.273-1.273,1.275-3.345,0.004-4.618
				c-0.616-0.616-1.436-0.956-2.309-0.956c0,0,0,0-0.002,0c-0.872,0-1.688,0.338-2.306,0.954c-0.618,0.617-0.958,1.436-0.958,2.308
				c-0.002,0.871,0.338,1.69,0.954,2.307c0.616,0.618,1.436,0.958,2.308,0.96H140.864z"/>
		</g>
	</g>
</g>
<g id="Layer_2">
</g>
<g id="Layer_3">
</g>
<g id="Layer_4">
</g>
<g id="Layer_5">
</g>
</svg>
